<?xml version="1.0" encoding="utf-8"?>
<!-- Generator: Adobe Illustrator 27.0.0, SVG Export Plug-In . SVG Version: 6.00 Build 0)  -->
<svg version="1.1" id="Layer_1" xmlns="http://www.w3.org/2000/svg" xmlns:xlink="http://www.w3.org/1999/xlink" x="0px" y="0px"
	 viewBox="0 0 23 32" style="enable-background:new 0 0 23 32;" xml:space="preserve">
<style type="text/css">
	.st0{clip-path:url(#SVGID_00000126307575555249845760000015955055253001136768_);}
	.st1{fill:#4F4F4F;}
	.st2{fill:#54A8EA;}
	.st3{fill:none;stroke:#BFE1FC;stroke-linecap:round;stroke-linejoin:round;}
</style>
<g>
	<defs>
		<rect id="SVGID_1_" x="0.8" y="0" width="21.3" height="32"/>
	</defs>
	<clipPath id="SVGID_00000108994804079037094160000008464314794479084181_">
		<use xlink:href="#SVGID_1_"  style="overflow:visible;"/>
	</clipPath>
	<g style="clip-path:url(#SVGID_00000108994804079037094160000008464314794479084181_);">
		<path class="st1" d="M8.8,1L1.5,1.3l1,13L2.8,16l2.4,14.7h12.6L19.5,15h1l1-13.7L8.8,1z"/>
		<path class="st2" d="M3.2,6.8L20.5,6l-0.3,7.2c-0.1,0.8-0.6,1.2-1.3,1.4l-0.3,3.3L17.5,28c-0.1,0.9-0.5,1-1.3,1l-9.7,0.3
			c-0.6,0.1-1.4,0.2-1.3-0.6l-0.7-7.4L3.8,14l-0.5-0.1L3.2,6.8z"/>
		<path class="st2" d="M2.8,14.4l2,16.5l13-0.5l1.5-12l0.5-3.5c0.8-0.3,0.3-0.9,0.4-1.7L20.5,6L3.2,6.8l0.1,7.1L2.8,14.4z"/>
		<path class="st2" d="M3.8,14.9h0.5h15.5c0.5,0,1-1.2,1-1.5V5.9h-19l1,9H3.8z"/>
		<path class="st2" d="M18.1,28.8c0,1-0.7,1.8-1.6,1.8L6.1,31.3c-0.7,0.1-1.2-0.6-1.2-1.7c0,0-1.3-2.9,6.5-2.9
			C19.1,26.7,18.1,28.8,18.1,28.8z"/>
		<path class="st3" d="M1.5,1.2c0,0,0.7,10.7,1,14.1c0,0,15.4,0.1,18.1-0.3c0,0,0.7-10.8,0.9-13.8C21.5,1.2,6.1,0.8,1.5,1.2z"/>
		<path class="st3" d="M2.8,15.4l2,15.6L18,30.8l1.8-15.4"/>
	</g>
</g>
</svg>
