<?xml version="1.0" encoding="utf-8"?>
<!-- Generator: Adobe Illustrator 27.0.0, SVG Export Plug-In . SVG Version: 6.00 Build 0)  -->
<svg version="1.1" id="Layer_1" xmlns="http://www.w3.org/2000/svg" xmlns:xlink="http://www.w3.org/1999/xlink" x="0px" y="0px"
	 viewBox="0 0 23 32" style="enable-background:new 0 0 23 32;" xml:space="preserve">
<style type="text/css">
	.st0{clip-path:url(#SVGID_00000149357296644648292240000007652667433770960561_);}
	.st1{fill:#393939;}
	.st2{fill:#4F4F4F;}
	.st3{fill:none;stroke:#6A6A6A;stroke-linecap:round;stroke-linejoin:round;stroke-miterlimit:10;}
</style>
<g>
	<defs>
		<rect id="SVGID_1_" x="0.9" y="0" width="21.3" height="32"/>
	</defs>
	<clipPath id="SVGID_00000128459052223335439970000007716697253467067023_">
		<use xlink:href="#SVGID_1_"  style="overflow:visible;"/>
	</clipPath>
	<g style="clip-path:url(#SVGID_00000128459052223335439970000007716697253467067023_);">
		<path class="st1" d="M8.9,1L1.5,1.3l1,13L2.9,16l2.3,14.7h12.7L19.5,15h1l1-13.7L8.9,1z"/>
		<path class="st2" d="M18.5,29.3c-0.1,1-0.8,1.7-1.7,1.7L5.2,31.3c-0.7,0-0.7-0.4-0.7-1.3c0,0-1.9-2.6,6.6-2.6
			C19.5,27.4,18.5,29.3,18.5,29.3z"/>
		<path class="st3" d="M1.5,1.2c0,0,0.6,10.7,1,14.1c0,0,15.4,0.1,18.1-0.3c0,0,0.7-10.8,0.9-13.9C21.5,1.2,6.1,0.8,1.5,1.2z"/>
		<path class="st3" d="M3.3,15.4L4.8,31L18,30.8l1.8-15.4"/>
	</g>
</g>
</svg>
