<?xml version="1.0" encoding="UTF-8"?>
<svg id="Layer_2" data-name="Layer 2" xmlns="http://www.w3.org/2000/svg" viewBox="0 0 1643.44 289.7">
  <defs>
    <style>
      .cls-1 {
        fill: #fff;
      }

      .cls-2 {
        fill: #ff9752;
      }

      .cls-3 {
        fill: #133f26;
      }
    </style>
  </defs>
  <g id="Layer_1-2" data-name="Layer 1">
    <g>
      <rect class="cls-3" x="792.98" y="0" width="850.47" height="289.16"/>
      <path class="cls-1" d="M851.43,266.56l19.48-20.23c4.59,5.1,10.1,9.2,16.52,12.32,6.42,3.12,13.04,4.68,19.86,4.68s12-1.85,16.2-5.54c4.2-3.69,6.3-8.34,6.3-13.94,0-3.73-1.01-7.03-3.01-9.9-2.01-2.87-4.86-5.31-8.56-7.32-3.7-2.01-7.48-3.78-11.35-5.33-3.87-1.54-8.38-3.39-13.51-5.54-5.13-2.15-9.45-4.23-12.97-6.24-14.57-8.54-21.85-20.23-21.85-35.09,0-6.67,1.45-12.79,4.36-18.35,2.91-5.56,6.74-10.13,11.52-13.72,4.77-3.59,10.19-6.37,16.25-8.34,6.06-1.97,12.32-2.96,18.78-2.96,16.79,0,31.71,4.84,44.77,14.53l-15.5,22.06c-3.16-2.94-7.16-5.36-12-7.26-4.84-1.9-9.7-2.85-14.58-2.85-2.94,0-5.78,.32-8.5,.97-2.73,.65-5.26,1.6-7.59,2.85-2.33,1.26-4.22,3-5.65,5.22-1.44,2.22-2.15,4.77-2.15,7.64s1.02,5.62,3.07,8.02c2.04,2.41,4.74,4.4,8.07,5.97,3.34,1.58,7.14,3.28,11.41,5.11,4.27,1.83,8.63,3.61,13.08,5.33,4.45,1.72,8.81,3.93,13.08,6.62,4.27,2.69,8.07,5.65,11.41,8.88,3.34,3.23,6.03,7.35,8.07,12.38,2.04,5.02,3.07,10.65,3.07,16.9,0,8.83-2.42,16.83-7.26,24-4.84,7.18-11.23,12.68-19.16,16.52-7.93,3.84-16.52,5.76-25.78,5.76-20.45,0-39.07-7.71-55.86-23.14Z"/>
      <path class="cls-1" d="M1075.98,254.29l16.25,16.25c-5.1,6.1-11.55,10.82-19.37,14.15-7.82,3.34-15.97,5-24.43,5-16.22,0-29.6-5.13-40.14-15.39-10.55-10.26-15.82-23.64-15.82-40.14,0-7.39,1.24-14.46,3.71-21.2,2.48-6.74,5.92-12.68,10.33-17.81,4.41-5.13,9.9-9.2,16.47-12.22,6.57-3.01,13.72-4.52,21.47-4.52,9.61,0,18.3,2.49,26.04,7.48,7.75,4.99,13.76,11.64,18.03,19.96,4.27,8.32,6.4,17.4,6.4,27.23,0,3.01-.22,5.74-.65,8.18h-74.05c.72,7.46,3.8,13.54,9.26,18.24,5.45,4.7,11.98,7.05,19.59,7.05,5.52,0,10.64-1.22,15.34-3.66,4.7-2.44,8.56-5.31,11.57-8.61Zm-54.46-34.01h44.13c-.43-4.95-2.66-9.31-6.67-13.08-4.02-3.77-8.86-5.65-14.53-5.65s-10.92,1.87-15.34,5.6c-4.41,3.73-6.94,8.11-7.59,13.13Z"/>
      <path class="cls-1" d="M1211.62,249.23l22.06,16.47c-11.98,16-28.16,24-48.54,24-16.36,0-29.99-5.36-40.9-16.09-10.91-10.73-16.36-23.87-16.36-39.44,0-10.26,2.49-19.64,7.48-28.14,4.99-8.5,11.89-15.23,20.72-20.18,8.83-4.95,18.58-7.43,29.27-7.43,9.04,0,17.52,1.94,25.45,5.81,7.93,3.87,14.44,9.08,19.53,15.61l-20.23,17.87c-2.94-3.95-6.55-7.07-10.82-9.36-4.27-2.3-8.92-3.44-13.94-3.44-8.25,0-15.12,2.82-20.61,8.45-5.49,5.63-8.23,12.58-8.23,20.83s2.74,15.44,8.23,20.93c5.49,5.49,12.57,8.23,21.26,8.23,5.45,0,10.44-1.36,14.96-4.09,4.52-2.73,8.07-6.06,10.65-10.01Z"/>
      <path class="cls-1" d="M1329.62,178.41c2.3,0,5.52,.29,9.69,.88l-3.23,27.22c-2.15-.73-5.6-1.1-10.33-1.1-5.74,0-10.98,1.65-15.71,4.94-4.74,3.29-8.18,6.88-10.33,10.76v68.59h-28.63v-108.98h27.55v16.79c0-4.83,2.89-9.22,8.66-13.17,5.78-3.95,13.22-5.93,22.33-5.93Z"/>
      <path class="cls-1" d="M1448.15,254.29l16.25,16.25c-5.1,6.1-11.55,10.82-19.37,14.15-7.82,3.34-15.97,5-24.43,5-16.22,0-29.6-5.13-40.14-15.39-10.55-10.26-15.82-23.64-15.82-40.14,0-7.39,1.24-14.46,3.71-21.2,2.48-6.74,5.92-12.68,10.33-17.81,4.41-5.13,9.9-9.2,16.47-12.22,6.57-3.01,13.72-4.52,21.47-4.52,9.61,0,18.3,2.49,26.04,7.48,7.75,4.99,13.76,11.64,18.03,19.96,4.27,8.32,6.4,17.4,6.4,27.23,0,3.01-.22,5.74-.65,8.18h-74.05c.72,7.46,3.8,13.54,9.26,18.24,5.45,4.7,11.98,7.05,19.59,7.05,5.52,0,10.64-1.22,15.34-3.66,4.7-2.44,8.56-5.31,11.57-8.61Zm-54.46-34.01h44.13c-.43-4.95-2.66-9.31-6.67-13.08-4.02-3.77-8.86-5.65-14.53-5.65s-10.92,1.87-15.34,5.6c-4.41,3.73-6.94,8.11-7.59,13.13Z"/>
      <path class="cls-1" d="M1578.77,263.11l6.22,24.43c-4.16,1.43-10.12,2.15-17.87,2.15-16.93,0-29.27-5.13-37.02-15.39-5.31-7.1-7.96-17.76-7.96-31.96v-37.45l-28.58-.03v-24.18h28.58v-29.81h28.74v29.81h28.64v24.18l-28.64,.03v40.79c0,6.24,1.15,10.73,3.44,13.45,3.08,3.52,7.96,5.27,14.64,5.27,4.52,0,6.59-.58,9.82-1.29Z"/>
    </g>
    <path class="cls-3" d="M0,130.53H52.41c8.25,0,15.07,.94,20.45,2.82,5.38,1.88,10.12,4.67,14.21,8.35,4.45,3.98,7.95,8.74,10.49,14.27,2.55,5.53,3.82,11.43,3.82,17.7,0,4.94-.97,9.86-2.91,14.77-1.94,4.91-4.27,8.79-7,11.67,6.89,3.54,12.47,9,16.74,16.37,4.27,7.38,6.4,15.45,6.4,24.23,0,6.57-1.26,12.8-3.77,18.7-2.51,5.9-5.96,11.06-10.33,15.49-9.26,9.51-22.71,14.27-40.36,14.27H0V130.53Zm29.7,27.21v33.96h20.99c7.53,0,13.02-1.88,16.47-5.64,2.94-3.24,4.41-7.01,4.41-11.28s-1.47-8.15-4.41-11.39c-3.44-3.76-8.93-5.64-16.47-5.64H29.7Zm0,104.21h29.81c9.11,0,15.71-2.32,19.8-6.97,3.66-3.98,5.49-8.81,5.49-14.49s-1.83-10.51-5.49-14.49c-4.09-4.72-10.69-7.08-19.8-7.08H29.7v43.03Z"/>
    <g>
      <path class="cls-3" d="M180.74,180.14v109.02h-28.63v-109.02h28.63Z"/>
      <path class="cls-3" d="M156.31,160.29c-2.8-2.69-4.2-6.01-4.2-9.95s1.4-7.27,4.2-9.95c2.8-2.69,6.17-4.03,10.12-4.03s7.32,1.34,10.12,4.03c2.8,2.69,4.2,6.01,4.2,9.95s-1.4,7.27-4.2,9.95c-2.8,2.69-6.17,4.03-10.12,4.03s-7.32-1.34-10.12-4.03Z"/>
    </g>
    <path class="cls-3" d="M227.76,261.61c-4.92-8.47-7.37-17.79-7.37-27.98s2.46-19.53,7.37-28.04c4.91-8.5,11.73-15.25,20.45-20.23,8.72-4.99,18.39-7.48,29.01-7.48s20.29,2.49,29,7.48c8.72,4.99,15.53,11.73,20.45,20.23,4.91,8.5,7.37,17.85,7.37,28.04s-2.46,19.52-7.37,27.98c-4.92,8.47-11.73,15.18-20.45,20.13-8.72,4.95-18.39,7.43-29,7.43s-20.29-2.48-29.01-7.43c-8.72-4.95-15.54-11.66-20.45-20.13Zm29.17-48.81c-5.27,5.63-7.91,12.58-7.91,20.83s2.64,15.17,7.91,20.77c5.27,5.6,12.04,8.4,20.29,8.4s15.01-2.8,20.29-8.4c5.27-5.6,7.91-12.52,7.91-20.77s-2.64-15.19-7.91-20.83c-5.27-5.63-12.04-8.45-20.29-8.45s-15.01,2.82-20.29,8.45Z"/>
    <path class="cls-3" d="M373.79,180.18h27.55v16.79c.22-4.83,3.03-9.22,8.45-13.17,5.42-3.95,12.22-5.93,20.4-5.93,7.1,0,13.79,1.54,20.07,4.61,6.28,3.07,11.57,7.24,15.87,12.51,4.66-5.05,10.28-9.16,16.84-12.35,6.57-3.18,13.58-4.77,21.04-4.77s14.31,1.57,20.99,4.72c6.67,3.15,12.16,7.43,16.47,12.84,7.17,9.07,10.76,21.07,10.76,36v57.73h-28.63v-58.93c0-8.41-1.76-14.63-5.27-18.66-4.02-4.46-9.36-6.69-16.04-6.69-5.53,0-10.62,1.52-15.28,4.55-4.66,3.04-8.18,6.31-10.55,9.82,.57,4.83,.86,8.89,.86,12.18v57.73h-28.63v-58.93c0-8.41-1.76-14.63-5.27-18.66-4.02-4.46-9.4-6.69-16.14-6.69-5.38,0-10.21,1.39-14.48,4.17-4.27,2.78-7.73,5.89-10.39,9.33v70.79h-28.63v-108.98Z"/>
    <path class="cls-3" d="M673.24,253.75l16.25,16.25c-5.1,6.1-11.55,10.82-19.37,14.15-7.82,3.34-15.97,5-24.43,5-16.22,0-29.6-5.13-40.14-15.39-10.55-10.26-15.82-23.64-15.82-40.14,0-7.39,1.24-14.46,3.71-21.2,2.48-6.74,5.92-12.68,10.33-17.81,4.41-5.13,9.9-9.2,16.47-12.22,6.57-3.01,13.72-4.52,21.47-4.52,9.61,0,18.3,2.49,26.04,7.48,7.75,4.99,13.76,11.64,18.03,19.96,4.27,8.32,6.4,17.4,6.4,27.23,0,3.01-.22,5.74-.65,8.18h-74.05c.72,7.46,3.8,13.54,9.26,18.24,5.45,4.7,11.98,7.05,19.59,7.05,5.52,0,10.64-1.22,15.34-3.66,4.7-2.44,8.56-5.31,11.57-8.61Zm-54.46-34.01h44.13c-.43-4.95-2.66-9.31-6.67-13.08-4.02-3.77-8.86-5.65-14.53-5.65s-10.92,1.87-15.34,5.6c-4.41,3.73-6.94,8.11-7.59,13.13Z"/>
    <rect class="cls-2" x="0" y="0" width="750.51" height="90.36"/>
  </g>
</svg>