<?xml version="1.0" encoding="UTF-8"?>
<svg id="Layer_2" data-name="Layer 2" xmlns="http://www.w3.org/2000/svg" viewBox="0 0 175.84 368.63">
  <defs>
    <style>
      .cls-1, .cls-2 {
        fill: #133f26;
      }

      .cls-2 {
        fill-rule: evenodd;
      }
    </style>
  </defs>
  <g id="Layer_1-2" data-name="Layer 1">
    <g>
      <path class="cls-2" d="M47.21,173.04l-30.59,178.12c-.28,1.65-1.03,3.13-2.5,4.03-2.11,1.3-4.66,.75-6.94,.36-4.7-.8-7.86-5.26-7.06-9.96L30.2,170.13c.8-4.7,5.26-7.86,9.96-7.06,4.7,.8,7.86,5.26,7.06,9.96Z"/>
      <path class="cls-1" d="M86.1,71.33c9.1-1.72,18.85,0,27.15,5.52,.09,.05,.18,.11,.27,.17h0s.08,.06,.08,.06h0c56.86,37.58,56.4,96.66,55.87,165.08-.26,32.97-.53,68.18,5.86,104,1.16,4.71,.34,9.47-1.92,13.4-2.33,4.02-6.18,7.16-11.02,8.45-4.83,1.29-9.74,.5-13.77-1.83-3.92-2.27-7-5.99-8.35-10.65-.11-.31-.19-.64-.24-.98l5.69-.87-5.69,.85-13.71-90.17-14.39,65.7c-.03,.16-.07,.33-.11,.5h0s-6.59,24.6-6.59,24.6c-1.29,4.84-4.42,8.69-8.45,11.02-4.03,2.33-8.93,3.12-13.77,1.83-4.84-1.29-8.69-4.43-11.02-8.45-2.33-4.03-3.12-8.93-1.83-13.77l6.52-24.33c.04-.17,.08-.33,.13-.5l5.5,1.71-5.49-1.71c5.93-19.04,13.52-56.29,15.6-93.06,1.02-18.01,.72-35.82-1.75-51.17,20.76-11.84,32.36-31.59,35.96-55.71,1.62-6.58,.6-13.5-2.86-19.33-3.5-5.9-9.16-10.15-15.81-11.84-6.64-1.69-13.63-.68-19.52,2.81-5.9,3.5-10.15,9.16-11.84,15.81l-.38,1.5c-2.19,7.71-5.92,15.12-12.11,20.18-3.72-4.71-6.17-10.2-7.26-15.96-1.74-9.23,.04-19.12,5.75-27.49,5.71-8.37,14.28-13.63,23.52-15.38Z"/>
      <path class="cls-1" d="M35.61,149.01c3.31-3.21,7.84-5.16,12.8-5.1v-.02h0l.13,.02c.29,0,26.71,.7,35.49-33.52h-.02c1.23-4.85,4.33-8.74,8.32-11.11,3.98-2.36,8.87-3.21,13.7-1.98h0c4.84,1.24,8.73,4.33,11.1,8.32,2.36,3.98,3.21,8.87,1.98,13.7h-.02c-4.6,32.22-38.21,61.26-71.08,60.79v.02h0l-.06-.02h-.07c-4.99-.1-9.47-2.19-12.67-5.49-3.23-3.33-5.18-7.89-5.1-12.89,.08-5,2.17-9.5,5.49-12.71Z"/>
      <path class="cls-1" d="M49.09,0c10.67,0,20.33,4.33,27.33,11.32,6.99,6.99,11.32,16.66,11.32,27.33s-4.33,20.33-11.32,27.33-16.66,11.32-27.33,11.32-20.33-4.33-27.33-11.32c-6.99-6.99-11.32-16.66-11.32-27.33s4.33-20.33,11.32-27.33C28.76,4.33,38.42,0,49.09,0Z"/>
    </g>
  </g>
</svg>